<svg aria-hidden="true" style="position: absolute; width: 0; height: 0; overflow: hidden;" version="1.1" xmlns="http://www.w3.org/2000/svg" xmlns:xlink="http://www.w3.org/1999/xlink">
<defs>
<symbol id="arrow-right" viewBox="0 0 18 32">
<path fill="none" stroke="#fff" style="stroke: var(--color1, #fff)" stroke-linejoin="round" stroke-linecap="round" stroke-miterlimit="4" stroke-width="3.4286" d="M1.714 2.441l12.857 12.844-12.857 12.844"></path>
</symbol>
<symbol id="arrow-left" viewBox="0 0 18 32">
<path fill="none" stroke="#fff" style="stroke: var(--color1, #fff)" stroke-linejoin="round" stroke-linecap="round" stroke-miterlimit="4" stroke-width="3.4286" d="M16.571 2.442l-12.857 12.844 12.857 12.843"></path>
</symbol>
<symbol id="arrow-up" viewBox="0 0 64 32">
<path stroke-linejoin="round" stroke-linecap="round" stroke-miterlimit="4" stroke-width="8" d="M8 28l24-24 24 24"></path>
</symbol>
<symbol id="empty-cart" viewBox="0 0 32 32">
<path  d="M31.298 7.798c-0.607-0.741-1.55-1.192-2.527-1.192h-20.517l-0.64-2.384c-0.371-1.386-1.65-2.352-3.134-2.352h-3.436c-0.572 0-1.045 0.45-1.045 0.999 0 0.547 0.471 0.999 1.045 0.999h3.436c0.505 0 0.944 0.322 1.078 0.805l4.11 15.658c0.371 1.386 1.65 2.352 3.134 2.352h13.442c1.482 0 2.797-0.967 3.133-2.352l2.527-9.923c0.236-0.904 0.034-1.87-0.607-2.611v-0zM29.851 9.956l-2.527 9.923c-0.134 0.483-0.572 0.805-1.078 0.805h-13.443c-0.505 0-0.944-0.322-1.078-0.805l-2.931-11.243h19.979c0.337 0 0.674 0.161 0.876 0.419 0.201 0.257 0.301 0.579 0.201 0.901l-0-0z"></path>
<path  d="M13.511 23.97c-1.92 0-3.503 1.514-3.503 3.35s1.583 3.35 3.503 3.35c1.92 0.001 3.503-1.513 3.503-3.349s-1.583-3.351-3.503-3.351v0zM13.511 28.642c-0.775 0-1.382-0.58-1.382-1.321s0.607-1.321 1.382-1.321c0.775 0 1.382 0.58 1.382 1.321-0.001 0.71-0.641 1.321-1.382 1.321z"></path>
<path  d="M25.1 23.97c-1.92 0-3.503 1.514-3.503 3.35s1.583 3.35 3.503 3.35c1.92 0 3.503-1.514 3.503-3.35-0.033-1.835-1.583-3.35-3.503-3.35zM25.1 28.642c-0.775 0-1.382-0.58-1.382-1.321s0.607-1.321 1.382-1.321c0.775 0 1.382 0.58 1.382 1.321 0 0.71-0.641 1.321-1.382 1.321z"></path>
</symbol>
<symbol id="arrow-down" viewBox="0 0 64 32">
<path stroke-linejoin="round" stroke-linecap="round" stroke-miterlimit="4" stroke-width="8" d="M8 4l24 24 24-24"></path>
</symbol>
<symbol id="VSF" viewBox="0 0 34 32">
<path  d="M30.991 24.428c0.028 0.329-0.228 0.611-0.555 0.611h-26.855c-0.326 0-0.582-0.281-0.555-0.609l1.924-23.488c0.024-0.292 0.265-0.516 0.555-0.516h22.925c0.289 0 0.53 0.223 0.555 0.514l2.005 23.488z"></path>
<path  d="M33.134 30.556c0.034 0.41-0.287 0.761-0.694 0.761h-30.795c-0.406 0-0.726-0.35-0.694-0.759l2.211-28.136c0.029-0.366 0.331-0.648 0.694-0.648h26.281c0.362 0 0.664 0.281 0.694 0.645l2.303 28.136z"></path>
<path  style="fill: var(--color1, #fff)" d="M16.437 22.395c-4.008 0-7.269-3.956-7.269-8.818 0-0.253 0.203-0.459 0.454-0.459s0.454 0.205 0.454 0.459c0 4.357 2.854 7.901 6.361 7.901s6.361-3.544 6.361-7.901c0-0.253 0.203-0.459 0.454-0.459s0.454 0.205 0.454 0.459c-0 4.862-3.261 8.818-7.269 8.818z"></path>
<path  style="fill: var(--color1, #fff)" d="M20.912 13.454c-0.116 0-0.232-0.045-0.321-0.134-0.177-0.179-0.177-0.469 0-0.649l2.352-2.377c0.085-0.086 0.201-0.134 0.321-0.134s0.236 0.048 0.321 0.134l2.329 2.354c0.177 0.179 0.177 0.469 0 0.649s-0.465 0.179-0.642 0l-2.009-2.029-2.031 2.052c-0.089 0.090-0.205 0.134-0.321 0.134z"></path>
</symbol>
<symbol id="dollar" viewBox="0 0 20 32">
<path d="M9.12 26.308l1.792 0.032v4.64h-1.792v-4.672zM9.28 25.956v-19.488l1.44-0.224v19.776l-1.44-0.064zM9.12 1.476h1.792v4.576l-1.792 0.224v-4.8zM16.256 9.604c-0.256-0.299-0.597-0.587-1.024-0.864s-0.907-0.523-1.44-0.736c-0.533-0.235-1.12-0.416-1.76-0.544-0.619-0.149-1.269-0.224-1.952-0.224-1.749 0-3.040 0.331-3.872 0.992s-1.248 1.568-1.248 2.72c0 0.811 0.213 1.451 0.64 1.92s1.077 0.853 1.952 1.152c0.896 0.299 2.027 0.608 3.392 0.928 1.579 0.341 2.944 0.757 4.096 1.248s2.037 1.152 2.656 1.984c0.619 0.811 0.928 1.899 0.928 3.264 0 1.088-0.213 2.037-0.64 2.848-0.405 0.789-0.981 1.451-1.728 1.984-0.747 0.512-1.621 0.896-2.624 1.152-1.003 0.235-2.091 0.352-3.264 0.352-1.152 0-2.283-0.117-3.392-0.352-1.088-0.256-2.123-0.619-3.104-1.088s-1.899-1.056-2.752-1.76l1.376-2.432c0.341 0.363 0.779 0.725 1.312 1.088 0.555 0.341 1.173 0.661 1.856 0.96 0.704 0.299 1.461 0.544 2.272 0.736 0.811 0.171 1.643 0.256 2.496 0.256 1.621 0 2.88-0.288 3.776-0.864 0.896-0.597 1.344-1.461 1.344-2.592 0-0.853-0.256-1.536-0.768-2.048-0.491-0.512-1.227-0.939-2.208-1.28s-2.176-0.683-3.584-1.024c-1.536-0.384-2.827-0.8-3.872-1.248-1.045-0.469-1.835-1.077-2.368-1.824-0.512-0.747-0.768-1.717-0.768-2.912 0-1.451 0.352-2.677 1.056-3.68s1.675-1.76 2.912-2.272c1.237-0.512 2.635-0.768 4.192-0.768 1.024 0 1.973 0.107 2.848 0.32 0.896 0.213 1.728 0.512 2.496 0.896s1.472 0.843 2.112 1.376l-1.344 2.336z"></path>
</symbol>
<symbol id="plus" viewBox="0 0 17 17">
<path d="M8.5 1V16" stroke="#1D1F22" stroke-linecap="round" stroke-linejoin="round"/>
<path d="M1 8.5H16" stroke="#1D1F22" stroke-linecap="round" stroke-linejoin="round"/>
</symbol>
<symbol id="minus" viewBox="0 0 17 1">
<path d="M1 0.5H16" stroke="#1D1F22" stroke-linecap="round" stroke-linejoin="round"/>

</symbol>

</defs>
</svg>
