<svg aria-hidden="true" style="position: absolute; width: 0; height: 0; overflow: hidden;" version="1.1" xmlns="http://www.w3.org/2000/svg" xmlns:xlink="http://www.w3.org/1999/xlink">
<defs>
<symbol id="arrow-right" viewBox="0 0 18 32">
<path fill="none" stroke="#fff" style="stroke: var(--color1, #fff)" stroke-linejoin="round" stroke-linecap="round" stroke-miterlimit="4" stroke-width="3.4286" d="M1.714 2.441l12.857 12.844-12.857 12.844"></path>
</symbol>
<symbol id="arrow-left" viewBox="0 0 18 32">
<path fill="none" stroke="#fff" style="stroke: var(--color1, #fff)" stroke-linejoin="round" stroke-linecap="round" stroke-miterlimit="4" stroke-width="3.4286" d="M16.571 2.442l-12.857 12.844 12.857 12.843"></path>
</symbol>
<symbol id="arrow-up" viewBox="0 0 64 32">
<path stroke-linejoin="round" stroke-linecap="round" stroke-miterlimit="4" stroke-width="8" d="M8 28l24-24 24 24"></path>
</symbol>
<symbol id="empty-cart" viewBox="0 0 32 32">
<path  d="M31.298 7.798c-0.607-0.741-1.55-1.192-2.527-1.192h-20.517l-0.64-2.384c-0.371-1.386-1.65-2.352-3.134-2.352h-3.436c-0.572 0-1.045 0.45-1.045 0.999 0 0.547 0.471 0.999 1.045 0.999h3.436c0.505 0 0.944 0.322 1.078 0.805l4.11 15.658c0.371 1.386 1.65 2.352 3.134 2.352h13.442c1.482 0 2.797-0.967 3.133-2.352l2.527-9.923c0.236-0.904 0.034-1.87-0.607-2.611v-0zM29.851 9.956l-2.527 9.923c-0.134 0.483-0.572 0.805-1.078 0.805h-13.443c-0.505 0-0.944-0.322-1.078-0.805l-2.931-11.243h19.979c0.337 0 0.674 0.161 0.876 0.419 0.201 0.257 0.301 0.579 0.201 0.901l-0-0z"></path>
<path  d="M13.511 23.97c-1.92 0-3.503 1.514-3.503 3.35s1.583 3.35 3.503 3.35c1.92 0.001 3.503-1.513 3.503-3.349s-1.583-3.351-3.503-3.351v0zM13.511 28.642c-0.775 0-1.382-0.58-1.382-1.321s0.607-1.321 1.382-1.321c0.775 0 1.382 0.58 1.382 1.321-0.001 0.71-0.641 1.321-1.382 1.321z"></path>
<path  d="M25.1 23.97c-1.92 0-3.503 1.514-3.503 3.35s1.583 3.35 3.503 3.35c1.92 0 3.503-1.514 3.503-3.35-0.033-1.835-1.583-3.35-3.503-3.35zM25.1 28.642c-0.775 0-1.382-0.58-1.382-1.321s0.607-1.321 1.382-1.321c0.775 0 1.382 0.58 1.382 1.321 0 0.71-0.641 1.321-1.382 1.321z"></path>
</symbol>
<symbol id="arrow-down" viewBox="0 0 64 32">
<path stroke-linejoin="round" stroke-linecap="round" stroke-miterlimit="4" stroke-width="8" d="M8 4l24 24 24-24"></path>
</symbol>
<symbol id="VSF" viewBox="0 0 34 32">
<path  d="M30.991 24.428c0.028 0.329-0.228 0.611-0.555 0.611h-26.855c-0.326 0-0.582-0.281-0.555-0.609l1.924-23.488c0.024-0.292 0.265-0.516 0.555-0.516h22.925c0.289 0 0.53 0.223 0.555 0.514l2.005 23.488z"></path>
<path  d="M33.134 30.556c0.034 0.41-0.287 0.761-0.694 0.761h-30.795c-0.406 0-0.726-0.35-0.694-0.759l2.211-28.136c0.029-0.366 0.331-0.648 0.694-0.648h26.281c0.362 0 0.664 0.281 0.694 0.645l2.303 28.136z"></path>
<path  style="fill: var(--color1, #fff)" d="M16.437 22.395c-4.008 0-7.269-3.956-7.269-8.818 0-0.253 0.203-0.459 0.454-0.459s0.454 0.205 0.454 0.459c0 4.357 2.854 7.901 6.361 7.901s6.361-3.544 6.361-7.901c0-0.253 0.203-0.459 0.454-0.459s0.454 0.205 0.454 0.459c-0 4.862-3.261 8.818-7.269 8.818z"></path>
<path  style="fill: var(--color1, #fff)" d="M20.912 13.454c-0.116 0-0.232-0.045-0.321-0.134-0.177-0.179-0.177-0.469 0-0.649l2.352-2.377c0.085-0.086 0.201-0.134 0.321-0.134s0.236 0.048 0.321 0.134l2.329 2.354c0.177 0.179 0.177 0.469 0 0.649s-0.465 0.179-0.642 0l-2.009-2.029-2.031 2.052c-0.089 0.090-0.205 0.134-0.321 0.134z"></path>
</symbol>
<symbol id="dollar" viewBox="0 0 20 32">
<path d="M9.12 26.308l1.792 0.032v4.64h-1.792v-4.672zM9.28 25.956v-19.488l1.44-0.224v19.776l-1.44-0.064zM9.12 1.476h1.792v4.576l-1.792 0.224v-4.8zM16.256 9.604c-0.256-0.299-0.597-0.587-1.024-0.864s-0.907-0.523-1.44-0.736c-0.533-0.235-1.12-0.416-1.76-0.544-0.619-0.149-1.269-0.224-1.952-0.224-1.749 0-3.040 0.331-3.872 0.992s-1.248 1.568-1.248 2.72c0 0.811 0.213 1.451 0.64 1.92s1.077 0.853 1.952 1.152c0.896 0.299 2.027 0.608 3.392 0.928 1.579 0.341 2.944 0.757 4.096 1.248s2.037 1.152 2.656 1.984c0.619 0.811 0.928 1.899 0.928 3.264 0 1.088-0.213 2.037-0.64 2.848-0.405 0.789-0.981 1.451-1.728 1.984-0.747 0.512-1.621 0.896-2.624 1.152-1.003 0.235-2.091 0.352-3.264 0.352-1.152 0-2.283-0.117-3.392-0.352-1.088-0.256-2.123-0.619-3.104-1.088s-1.899-1.056-2.752-1.76l1.376-2.432c0.341 0.363 0.779 0.725 1.312 1.088 0.555 0.341 1.173 0.661 1.856 0.96 0.704 0.299 1.461 0.544 2.272 0.736 0.811 0.171 1.643 0.256 2.496 0.256 1.621 0 2.88-0.288 3.776-0.864 0.896-0.597 1.344-1.461 1.344-2.592 0-0.853-0.256-1.536-0.768-2.048-0.491-0.512-1.227-0.939-2.208-1.28s-2.176-0.683-3.584-1.024c-1.536-0.384-2.827-0.8-3.872-1.248-1.045-0.469-1.835-1.077-2.368-1.824-0.512-0.747-0.768-1.717-0.768-2.912 0-1.451 0.352-2.677 1.056-3.68s1.675-1.76 2.912-2.272c1.237-0.512 2.635-0.768 4.192-0.768 1.024 0 1.973 0.107 2.848 0.32 0.896 0.213 1.728 0.512 2.496 0.896s1.472 0.843 2.112 1.376l-1.344 2.336z"></path>
</symbol>
<symbol id="plus" viewBox="0 0 17 17">
<path d="M8.5 1V16" stroke="#1D1F22" stroke-linecap="round" stroke-linejoin="round"/>
<path d="M1 8.5H16" stroke="#1D1F22" stroke-linecap="round" stroke-linejoin="round"/>
</symbol>
<symbol id="minus" viewBox="0 0 17 1">
<path d="M1 0.5H16" stroke="#1D1F22" stroke-linecap="round" stroke-linejoin="round"/>
</symbol>
<symbol id="usd" viewBox="0 0 53 17">
<path d="M4.93859 14.298L5.94659 14.316V16.926H4.93859V14.298ZM5.02859 14.1V3.138L5.83859 3.012V14.136L5.02859 14.1ZM4.93859 0.329999H5.94659V2.904L4.93859 3.03V0.329999ZM8.95259 4.902C8.80859 4.734 8.61659 4.572 8.37659 4.416C8.13659 4.26 7.86659 4.122 7.56659 4.002C7.26659 3.87 6.93659 3.768 6.57659 3.696C6.22859 3.612 5.86259 3.57 5.47859 3.57C4.49459 3.57 3.76859 3.756 3.30059 4.128C2.83259 4.5 2.59859 5.01 2.59859 5.658C2.59859 6.114 2.71859 6.474 2.95859 6.738C3.19859 7.002 3.56459 7.218 4.05659 7.386C4.56059 7.554 5.19659 7.728 5.96459 7.908C6.85259 8.1 7.62059 8.334 8.26859 8.61C8.91659 8.886 9.41459 9.258 9.76259 9.726C10.1106 10.182 10.2846 10.794 10.2846 11.562C10.2846 12.174 10.1646 12.708 9.92459 13.164C9.69659 13.608 9.37259 13.98 8.95259 14.28C8.53259 14.568 8.04059 14.784 7.47659 14.928C6.91259 15.06 6.30059 15.126 5.64059 15.126C4.99259 15.126 4.35659 15.06 3.73259 14.928C3.12059 14.784 2.53859 14.58 1.98659 14.316C1.43459 14.052 0.918594 13.722 0.438594 13.326L1.21259 11.958C1.40459 12.162 1.65059 12.366 1.95059 12.57C2.26259 12.762 2.61059 12.942 2.99459 13.11C3.39059 13.278 3.81659 13.416 4.27259 13.524C4.72859 13.62 5.19659 13.668 5.67659 13.668C6.58859 13.668 7.29659 13.506 7.80059 13.182C8.30459 12.846 8.55659 12.36 8.55659 11.724C8.55659 11.244 8.41259 10.86 8.12459 10.572C7.84859 10.284 7.43459 10.044 6.88259 9.852C6.33059 9.66 5.65859 9.468 4.86659 9.276C4.00259 9.06 3.27659 8.826 2.68859 8.574C2.10059 8.31 1.65659 7.968 1.35659 7.548C1.06859 7.128 0.924594 6.582 0.924594 5.91C0.924594 5.094 1.12259 4.404 1.51859 3.84C1.91459 3.276 2.46059 2.85 3.15659 2.562C3.85259 2.274 4.63859 2.13 5.51459 2.13C6.09059 2.13 6.62459 2.19 7.11659 2.31C7.62059 2.43 8.08859 2.598 8.52059 2.814C8.95259 3.03 9.34859 3.288 9.70859 3.588L8.95259 4.902ZM22.3626 15.09C21.3426 15.09 20.4846 14.916 19.7886 14.568C19.0926 14.208 18.5346 13.728 18.1146 13.128C17.6946 12.516 17.3886 11.826 17.1966 11.058C17.0046 10.29 16.9086 9.498 16.9086 8.682V2.22H18.5286V8.682C18.5286 9.306 18.5886 9.918 18.7086 10.518C18.8406 11.106 19.0506 11.634 19.3386 12.102C19.6266 12.57 20.0166 12.942 20.5086 13.218C21.0006 13.494 21.6126 13.632 22.3446 13.632C23.0886 13.632 23.7066 13.494 24.1986 13.218C24.6906 12.93 25.0806 12.552 25.3686 12.084C25.6566 11.604 25.8606 11.07 25.9806 10.482C26.1126 9.894 26.1786 9.294 26.1786 8.682V2.22H27.7986V8.682C27.7986 9.546 27.6966 10.368 27.4926 11.148C27.3006 11.916 26.9886 12.594 26.5566 13.182C26.1246 13.77 25.5606 14.238 24.8646 14.586C24.1806 14.922 23.3466 15.09 22.3626 15.09ZM38.1825 4.902C38.0385 4.734 37.8465 4.572 37.6065 4.416C37.3665 4.26 37.0965 4.122 36.7965 4.002C36.4965 3.87 36.1665 3.768 35.8065 3.696C35.4585 3.612 35.0925 3.57 34.7085 3.57C33.7245 3.57 32.9985 3.756 32.5305 4.128C32.0625 4.5 31.8285 5.01 31.8285 5.658C31.8285 6.114 31.9485 6.474 32.1885 6.738C32.4285 7.002 32.7945 7.218 33.2865 7.386C33.7905 7.554 34.4265 7.728 35.1945 7.908C36.0825 8.1 36.8505 8.334 37.4985 8.61C38.1465 8.886 38.6445 9.258 38.9925 9.726C39.3405 10.182 39.5145 10.794 39.5145 11.562C39.5145 12.174 39.3945 12.708 39.1545 13.164C38.9265 13.608 38.6025 13.98 38.1825 14.28C37.7625 14.568 37.2705 14.784 36.7065 14.928C36.1425 15.06 35.5305 15.126 34.8705 15.126C34.2225 15.126 33.5865 15.06 32.9625 14.928C32.3505 14.784 31.7685 14.58 31.2165 14.316C30.6645 14.052 30.1485 13.722 29.6685 13.326L30.4425 11.958C30.6345 12.162 30.8805 12.366 31.1805 12.57C31.4925 12.762 31.8405 12.942 32.2245 13.11C32.6205 13.278 33.0465 13.416 33.5025 13.524C33.9585 13.62 34.4265 13.668 34.9065 13.668C35.8185 13.668 36.5265 13.506 37.0305 13.182C37.5345 12.846 37.7865 12.36 37.7865 11.724C37.7865 11.244 37.6425 10.86 37.3545 10.572C37.0785 10.284 36.6645 10.044 36.1125 9.852C35.5605 9.66 34.8885 9.468 34.0965 9.276C33.2325 9.06 32.5065 8.826 31.9185 8.574C31.3305 8.31 30.8865 7.968 30.5865 7.548C30.2985 7.128 30.1545 6.582 30.1545 5.91C30.1545 5.094 30.3525 4.404 30.7485 3.84C31.1445 3.276 31.6905 2.85 32.3865 2.562C33.0825 2.274 33.8685 2.13 34.7445 2.13C35.3205 2.13 35.8545 2.19 36.3465 2.31C36.8505 2.43 37.3185 2.598 37.7505 2.814C38.1825 3.03 38.5785 3.288 38.9385 3.588L38.1825 4.902ZM41.6452 15V2.22H46.0732C47.4412 2.22 48.5812 2.508 49.4932 3.084C50.4172 3.648 51.1072 4.416 51.5632 5.388C52.0192 6.348 52.2472 7.416 52.2472 8.592C52.2472 9.888 51.9952 11.016 51.4912 11.976C50.9872 12.936 50.2732 13.68 49.3492 14.208C48.4252 14.736 47.3332 15 46.0732 15H41.6452ZM50.6092 8.592C50.6092 7.632 50.4292 6.78 50.0692 6.036C49.7212 5.292 49.2112 4.71 48.5392 4.29C47.8672 3.87 47.0452 3.66 46.0732 3.66H43.2652V13.56H46.0732C47.0572 13.56 47.8852 13.344 48.5572 12.912C49.2292 12.468 49.7392 11.874 50.0872 11.13C50.4352 10.374 50.6092 9.528 50.6092 8.592Z" fill="#1D1F22"/>
</symbol>
<symbol id="eur" viewBox="0 0 55 14">
<path d="M0.416266 8.338L0.812266 7.402H8.94827L8.55227 8.338H0.416266ZM9.57827 5.404L9.18227 6.34H0.848266L1.24427 5.404H9.57827ZM2.16227 6.52C2.16227 5.74 2.29427 4.978 2.55827 4.234C2.83427 3.478 3.23027 2.794 3.74627 2.182C4.27427 1.558 4.91627 1.066 5.67227 0.705999C6.42827 0.333999 7.28627 0.147999 8.24627 0.147999C9.38627 0.147999 10.3643 0.411999 11.1803 0.94C11.9963 1.456 12.6023 2.122 12.9983 2.938L11.7203 3.766C11.4683 3.226 11.1443 2.8 10.7483 2.488C10.3643 2.164 9.94427 1.936 9.48827 1.804C9.04427 1.672 8.60627 1.606 8.17427 1.606C7.46627 1.606 6.83627 1.75 6.28427 2.038C5.74427 2.326 5.28827 2.71 4.91627 3.19C4.54427 3.67 4.26227 4.21 4.07027 4.81C3.89027 5.398 3.80027 5.992 3.80027 6.592C3.80027 7.252 3.90827 7.888 4.12427 8.5C4.35227 9.112 4.66427 9.652 5.06027 10.12C5.45627 10.588 5.92427 10.96 6.46427 11.236C7.00427 11.512 7.59227 11.65 8.22827 11.65C8.67227 11.65 9.12827 11.572 9.59627 11.416C10.0643 11.26 10.5023 11.02 10.9103 10.696C11.3183 10.36 11.6423 9.928 11.8823 9.4L13.2323 10.138C12.9683 10.774 12.5603 11.314 12.0083 11.758C11.4563 12.202 10.8383 12.538 10.1543 12.766C9.48227 12.994 8.81627 13.108 8.15627 13.108C7.28027 13.108 6.47627 12.922 5.74427 12.55C5.01227 12.166 4.37627 11.662 3.83627 11.038C3.30827 10.402 2.89427 9.694 2.59427 8.914C2.30627 8.122 2.16227 7.324 2.16227 6.52ZM28.8896 11.56V13H20.2136V0.219999H28.7276V1.66H21.8336V5.8H27.8276V7.15H21.8336V11.56H28.8896ZM36.386 13.09C35.366 13.09 34.508 12.916 33.812 12.568C33.116 12.208 32.558 11.728 32.138 11.128C31.718 10.516 31.412 9.826 31.22 9.058C31.028 8.29 30.932 7.498 30.932 6.682V0.219999H32.552V6.682C32.552 7.306 32.612 7.918 32.732 8.518C32.864 9.106 33.074 9.634 33.362 10.102C33.65 10.57 34.04 10.942 34.532 11.218C35.024 11.494 35.636 11.632 36.368 11.632C37.112 11.632 37.73 11.494 38.222 11.218C38.714 10.93 39.104 10.552 39.392 10.084C39.68 9.604 39.884 9.07 40.004 8.482C40.136 7.894 40.202 7.294 40.202 6.682V0.219999H41.822V6.682C41.822 7.546 41.72 8.368 41.516 9.148C41.324 9.916 41.012 10.594 40.58 11.182C40.148 11.77 39.584 12.238 38.888 12.586C38.204 12.922 37.37 13.09 36.386 13.09ZM44.6999 13V0.219999H50.1719C50.7359 0.219999 51.2519 0.339999 51.7199 0.579999C52.1879 0.808 52.5959 1.12 52.9439 1.516C53.2919 1.9 53.5619 2.338 53.7539 2.83C53.9459 3.31 54.0419 3.802 54.0419 4.306C54.0419 4.894 53.9279 5.452 53.6999 5.98C53.4839 6.508 53.1719 6.958 52.7639 7.33C52.3679 7.702 51.8999 7.96 51.3599 8.104L54.4559 13H52.6199L49.7039 8.41H46.3199V13H44.6999ZM46.3199 6.97H50.1899C50.6339 6.97 51.0179 6.85 51.3419 6.61C51.6779 6.358 51.9359 6.028 52.1159 5.62C52.3079 5.212 52.4039 4.774 52.4039 4.306C52.4039 3.826 52.2959 3.388 52.0799 2.992C51.8639 2.584 51.5819 2.26 51.2339 2.02C50.8859 1.78 50.5019 1.66 50.0819 1.66H46.3199V6.97Z" fill="#1D1F22"/>
</symbol>
<symbol id="jpy" viewBox="0 0 48 14">
<path d="M8.32434 6.214H9.78234V7.294H7.73034L7.11834 8.338V8.842H9.80034V9.922H7.11834V13H5.49834V9.922H2.85234V8.842H5.49834V8.302L4.92234 7.294H2.85234V6.214H4.34634L0.674344 0.219999H2.43834L6.30834 6.88L10.2143 0.219999H11.9963L8.32434 6.214ZM17.2003 11.092C17.4283 11.248 17.7403 11.398 18.1363 11.542C18.5443 11.674 19.0243 11.74 19.5763 11.74C20.1403 11.74 20.6023 11.65 20.9623 11.47C21.3223 11.278 21.5983 10.996 21.7903 10.624C21.9823 10.24 22.1143 9.754 22.1863 9.166C22.2583 8.578 22.2943 7.882 22.2943 7.078V0.219999H23.9143V6.718C23.9143 7.666 23.8663 8.536 23.7703 9.328C23.6743 10.12 23.4823 10.81 23.1943 11.398C22.9063 11.974 22.4743 12.418 21.8983 12.73C21.3343 13.042 20.5783 13.198 19.6303 13.198C19.0303 13.198 18.5023 13.132 18.0463 13C17.5903 12.868 17.1703 12.67 16.7863 12.406L17.2003 11.092ZM26.8366 13V0.219999H32.1646C32.7286 0.219999 33.2446 0.339999 33.7126 0.579999C34.1806 0.808 34.5886 1.12 34.9366 1.516C35.2846 1.9 35.5546 2.338 35.7466 2.83C35.9386 3.31 36.0346 3.802 36.0346 4.306C36.0346 5.002 35.8786 5.668 35.5666 6.304C35.2546 6.928 34.8166 7.438 34.2526 7.834C33.6886 8.218 33.0286 8.41 32.2726 8.41H28.4566V13H26.8366ZM28.4566 6.97H32.1826C32.6266 6.97 33.0106 6.85 33.3346 6.61C33.6706 6.37 33.9286 6.046 34.1086 5.638C34.3006 5.23 34.3966 4.786 34.3966 4.306C34.3966 3.802 34.2886 3.352 34.0726 2.956C33.8566 2.548 33.5746 2.23 33.2266 2.002C32.8786 1.774 32.4946 1.66 32.0746 1.66H28.4566V6.97ZM38.2211 0.219999L42.0911 6.88L45.9971 0.219999H47.7611L42.9011 8.338V13H41.2811V8.302L36.4391 0.219999H38.2211Z" fill="#1D1F22"/>
</symbol>

</defs>
</svg>
